<svg xmlns="http://www.w3.org/2000/svg" height="40" width="40"><path d="m20 30.75-7.5 4.542q-.417.25-.896.229-.479-.021-.854-.313-.375-.25-.542-.666-.166-.417-.083-.959l2-8.541-6.625-5.75q-.417-.334-.5-.792-.083-.458.042-.875.125-.458.479-.729.354-.271.896-.354l8.708-.75 3.417-8.084q.208-.458.625-.687.416-.229.833-.229t.833.229q.417.229.625.687l3.417 8.084 8.75.75q.5.083.854.354.354.271.479.729.125.417.042.875-.083.458-.5.792l-6.625 5.75 2 8.541q.083.542-.083.959-.167.416-.542.666-.375.292-.854.313-.479.021-.896-.229Z"/></svg>